<svg width="2504" height="879" viewBox="0 0 2504 879" fill="none" xmlns="http://www.w3.org/2000/svg">
<path d="M192.511 704.975C152.986 704.975 119.041 698.233 90.6754 684.747C62.7753 671.262 37.4327 651.035 14.6476 624.065L77.4228 561.289C91.8379 580.355 108.578 595.235 127.643 605.93C146.708 616.16 169.958 621.275 197.393 621.275C222.038 621.275 241.569 616.392 255.984 606.627C270.864 596.862 278.304 583.377 278.304 566.172C278.304 551.292 274.119 539.202 265.749 529.902C257.379 520.602 246.219 512.697 232.268 506.187C218.783 499.677 203.671 493.864 186.931 488.749C170.656 483.169 154.148 476.892 137.408 469.917C121.133 462.942 106.02 454.339 92.0704 444.109C78.5853 433.414 67.6578 419.929 59.2877 403.654C50.9177 386.914 46.7327 365.989 46.7327 340.878C46.7327 311.118 53.9402 285.776 68.3553 264.851C82.7704 243.926 102.533 227.883 127.643 216.723C152.753 205.563 181.118 199.983 212.738 199.983C246.219 199.983 276.444 206.26 303.414 218.815C330.384 231.371 352.472 247.646 369.677 267.641L306.901 330.416C292.486 314.606 277.606 302.981 262.261 295.541C247.381 288.101 230.408 284.381 211.343 284.381C189.488 284.381 172.283 288.566 159.728 296.936C147.173 305.306 140.896 317.396 140.896 333.206C140.896 346.691 145.081 357.619 153.451 365.989C161.821 374.359 172.748 381.566 186.233 387.611C200.183 393.656 215.296 399.469 231.571 405.049C248.311 410.629 264.819 416.906 281.094 423.881C297.834 430.856 312.946 439.924 326.431 451.084C340.381 462.244 351.541 476.659 359.912 494.329C368.282 511.534 372.467 532.924 372.467 558.499C372.467 604.07 356.424 639.875 324.339 665.915C292.254 691.955 248.311 704.975 192.511 704.975ZM664.257 698V504.792C664.257 484.797 657.98 468.522 645.425 455.966C632.869 443.411 616.594 437.134 596.599 437.134C583.579 437.134 571.954 439.924 561.724 445.504C551.494 451.084 543.357 458.989 537.312 469.219C531.732 479.449 528.942 491.307 528.942 504.792L493.369 486.657C493.369 460.151 498.949 437.134 510.109 417.604C521.269 397.609 536.614 382.031 556.144 370.871C576.139 359.711 598.924 354.131 624.499 354.131C650.075 354.131 672.627 359.711 692.157 370.871C712.152 382.031 727.73 397.376 738.89 416.906C750.05 436.436 755.63 458.989 755.63 484.564V698H664.257ZM437.569 698V193.705H528.942V698H437.569ZM829.233 698V361.106H921.303V698H829.233ZM875.268 306.701C860.388 306.701 848.065 301.818 838.3 292.053C828.535 281.823 823.653 269.268 823.653 254.388C823.653 239.973 828.535 227.65 838.3 217.42C848.065 207.19 860.388 202.075 875.268 202.075C890.613 202.075 902.936 207.19 912.236 217.42C922.001 227.65 926.883 239.973 926.883 254.388C926.883 269.268 922.001 281.823 912.236 292.053C902.936 301.818 890.613 306.701 875.268 306.701ZM1111.75 698L963.186 361.106H1063.63L1170.34 638.712H1120.82L1228.24 361.106H1325.19L1177.32 698H1111.75ZM1498.02 704.975C1467.33 704.975 1439.67 697.302 1415.02 681.957C1390.38 666.612 1371.08 645.687 1357.13 619.182C1343.18 592.677 1336.2 562.917 1336.2 529.902C1336.2 496.422 1343.18 466.429 1357.13 439.924C1371.08 413.419 1390.38 392.494 1415.02 377.149C1439.67 361.804 1467.33 354.131 1498.02 354.131C1522.2 354.131 1543.83 359.014 1562.89 368.779C1581.96 378.544 1597.07 392.261 1608.23 409.931C1619.85 427.136 1626.13 446.666 1627.06 468.522V589.887C1626.13 612.207 1619.85 631.97 1608.23 649.175C1597.07 666.38 1581.96 680.097 1562.89 690.327C1543.83 700.093 1522.2 704.975 1498.02 704.975ZM1514.76 620.577C1540.34 620.577 1561.03 612.207 1576.84 595.467C1592.65 578.262 1600.56 556.174 1600.56 529.204C1600.56 511.534 1596.84 495.957 1589.4 482.472C1582.42 468.522 1572.42 457.826 1559.4 450.386C1546.85 442.481 1531.97 438.529 1514.76 438.529C1498.02 438.529 1483.14 442.481 1470.12 450.386C1457.57 457.826 1447.57 468.522 1440.13 482.472C1433.16 495.957 1429.67 511.534 1429.67 529.204C1429.67 547.339 1433.16 563.382 1440.13 577.332C1447.57 590.817 1457.57 601.512 1470.12 609.417C1483.14 616.857 1498.02 620.577 1514.76 620.577ZM1595.67 698V607.325L1610.32 525.019L1595.67 444.109V361.106H1686.35V698H1595.67ZM1908.08 704.975C1877.39 704.975 1849.72 697.302 1825.08 681.957C1800.43 666.612 1781.13 645.687 1767.18 619.182C1753.23 592.677 1746.26 562.917 1746.26 529.902C1746.26 496.422 1753.23 466.429 1767.18 439.924C1781.13 413.419 1800.43 392.494 1825.08 377.149C1849.72 361.804 1877.39 354.131 1908.08 354.131C1932.26 354.131 1953.88 359.014 1972.95 368.779C1992.01 378.544 2007.12 392.261 2018.28 409.931C2029.91 427.136 2036.19 446.666 2037.12 468.522V589.887C2036.19 612.207 2029.91 631.97 2018.28 649.175C2007.12 666.38 1992.01 680.097 1972.95 690.327C1953.88 700.093 1932.26 704.975 1908.08 704.975ZM1924.82 620.577C1950.39 620.577 1971.09 612.207 1986.9 595.467C2002.71 578.262 2010.61 556.174 2010.61 529.204C2010.61 511.534 2006.89 495.957 1999.45 482.472C1992.48 468.522 1982.48 457.826 1969.46 450.386C1956.9 442.481 1942.02 438.529 1924.82 438.529C1908.08 438.529 1893.2 442.481 1880.18 450.386C1867.62 457.826 1857.63 468.522 1850.19 482.472C1843.21 495.957 1839.72 511.534 1839.72 529.204C1839.72 547.339 1843.21 563.382 1850.19 577.332C1857.63 590.817 1867.62 601.512 1880.18 609.417C1893.2 616.857 1908.08 620.577 1924.82 620.577ZM2005.73 698V607.325L2020.38 525.019L2005.73 444.109V361.106H2096.41V698H2005.73ZM2283.26 700.79L2142.36 361.106H2241.41L2334.87 620.577H2301.39L2398.35 361.106H2498.09L2348.13 700.79H2283.26ZM2189.79 838.896L2292.33 621.972L2348.13 700.79L2286.75 838.896H2189.79Z" fill="white"/>
</svg>
