<svg width="3796" height="1024" viewBox="0 0 3796 1024" fill="none" xmlns="http://www.w3.org/2000/svg">
<g clip-path="url(#clip0_8_3)">
<path d="M174.55 724.31H0L174.55 435.699L262.688 577.412L174.55 724.31Z" fill="white"/>
<path d="M767.359 575.192L680.916 721.354L1018.2 720.382L942.127 575.301L767.359 575.192Z" fill="white"/>
<path d="M349.099 722.582L262.688 577.412L516.736 154V447.796L349.099 722.582Z" fill="white"/>
<path d="M682.644 722.582L769.055 577.412L515.007 154V447.796L682.644 722.582Z" fill="white"/>
</g>
<path d="M1484.51 704.975C1444.99 704.975 1411.04 698.233 1382.68 684.747C1354.78 671.262 1329.43 651.035 1306.65 624.065L1369.42 561.289C1383.84 580.355 1400.58 595.235 1419.64 605.93C1438.71 616.16 1461.96 621.275 1489.39 621.275C1514.04 621.275 1533.57 616.392 1547.98 606.627C1562.86 596.862 1570.3 583.377 1570.3 566.172C1570.3 551.292 1566.12 539.202 1557.75 529.902C1549.38 520.602 1538.22 512.697 1524.27 506.187C1510.78 499.677 1495.67 493.864 1478.93 488.749C1462.66 483.169 1446.15 476.892 1429.41 469.917C1413.13 462.942 1398.02 454.339 1384.07 444.109C1370.59 433.414 1359.66 419.929 1351.29 403.654C1342.92 386.914 1338.73 365.989 1338.73 340.878C1338.73 311.118 1345.94 285.776 1360.36 264.851C1374.77 243.926 1394.53 227.883 1419.64 216.723C1444.75 205.563 1473.12 199.983 1504.74 199.983C1538.22 199.983 1568.44 206.26 1595.41 218.815C1622.38 231.371 1644.47 247.646 1661.68 267.641L1598.9 330.416C1584.49 314.606 1569.61 302.981 1554.26 295.541C1539.38 288.101 1522.41 284.381 1503.34 284.381C1481.49 284.381 1464.28 288.566 1451.73 296.936C1439.17 305.306 1432.9 317.396 1432.9 333.206C1432.9 346.691 1437.08 357.619 1445.45 365.989C1453.82 374.359 1464.75 381.566 1478.23 387.611C1492.18 393.656 1507.3 399.469 1523.57 405.049C1540.31 410.629 1556.82 416.906 1573.09 423.881C1589.83 430.856 1604.95 439.924 1618.43 451.084C1632.38 462.244 1643.54 476.659 1651.91 494.329C1660.28 511.534 1664.47 532.924 1664.47 558.499C1664.47 604.07 1648.42 639.875 1616.34 665.915C1584.25 691.955 1540.31 704.975 1484.51 704.975ZM1956.26 698V504.792C1956.26 484.797 1949.98 468.522 1937.42 455.966C1924.87 443.411 1908.59 437.134 1888.6 437.134C1875.58 437.134 1863.95 439.924 1853.72 445.504C1843.49 451.084 1835.36 458.989 1829.31 469.219C1823.73 479.449 1820.94 491.307 1820.94 504.792L1785.37 486.657C1785.37 460.151 1790.95 437.134 1802.11 417.604C1813.27 397.609 1828.61 382.031 1848.14 370.871C1868.14 359.711 1890.92 354.131 1916.5 354.131C1942.07 354.131 1964.63 359.711 1984.16 370.871C2004.15 382.031 2019.73 397.376 2030.89 416.906C2042.05 436.436 2047.63 458.989 2047.63 484.564V698H1956.26ZM1729.57 698V193.705H1820.94V698H1729.57ZM2121.23 698V361.106H2213.3V698H2121.23ZM2167.27 306.701C2152.39 306.701 2140.07 301.818 2130.3 292.053C2120.54 281.823 2115.65 269.268 2115.65 254.388C2115.65 239.973 2120.54 227.65 2130.3 217.42C2140.07 207.19 2152.39 202.075 2167.27 202.075C2182.61 202.075 2194.94 207.19 2204.24 217.42C2214 227.65 2218.88 239.973 2218.88 254.388C2218.88 269.268 2214 281.823 2204.24 292.053C2194.94 301.818 2182.61 306.701 2167.27 306.701ZM2403.75 698L2255.19 361.106H2355.63L2462.34 638.712H2412.82L2520.24 361.106H2617.19L2469.32 698H2403.75ZM2790.02 704.975C2759.33 704.975 2731.67 697.302 2707.02 681.957C2682.38 666.612 2663.08 645.687 2649.13 619.182C2635.18 592.677 2628.2 562.917 2628.2 529.902C2628.2 496.422 2635.18 466.429 2649.13 439.924C2663.08 413.419 2682.38 392.494 2707.02 377.149C2731.67 361.804 2759.33 354.131 2790.02 354.131C2814.2 354.131 2835.83 359.014 2854.89 368.779C2873.96 378.544 2889.07 392.261 2900.23 409.931C2911.85 427.136 2918.13 446.666 2919.06 468.522V589.887C2918.13 612.207 2911.85 631.97 2900.23 649.175C2889.07 666.38 2873.96 680.097 2854.89 690.327C2835.83 700.093 2814.2 704.975 2790.02 704.975ZM2806.76 620.577C2832.34 620.577 2853.03 612.207 2868.84 595.467C2884.65 578.262 2892.56 556.174 2892.56 529.204C2892.56 511.534 2888.84 495.957 2881.4 482.472C2874.42 468.522 2864.42 457.826 2851.4 450.386C2838.85 442.481 2823.97 438.529 2806.76 438.529C2790.02 438.529 2775.14 442.481 2762.12 450.386C2749.57 457.826 2739.57 468.522 2732.13 482.472C2725.16 495.957 2721.67 511.534 2721.67 529.204C2721.67 547.339 2725.16 563.382 2732.13 577.332C2739.57 590.817 2749.57 601.512 2762.12 609.417C2775.14 616.857 2790.02 620.577 2806.76 620.577ZM2887.67 698V607.325L2902.32 525.019L2887.67 444.109V361.106H2978.35V698H2887.67ZM3200.08 704.975C3169.39 704.975 3141.72 697.302 3117.08 681.957C3092.43 666.612 3073.13 645.687 3059.18 619.182C3045.23 592.677 3038.26 562.917 3038.26 529.902C3038.26 496.422 3045.23 466.429 3059.18 439.924C3073.13 413.419 3092.43 392.494 3117.08 377.149C3141.72 361.804 3169.39 354.131 3200.08 354.131C3224.26 354.131 3245.88 359.014 3264.95 368.779C3284.01 378.544 3299.12 392.261 3310.28 409.931C3321.91 427.136 3328.19 446.666 3329.12 468.522V589.887C3328.19 612.207 3321.91 631.97 3310.28 649.175C3299.12 666.38 3284.01 680.097 3264.95 690.327C3245.88 700.093 3224.26 704.975 3200.08 704.975ZM3216.82 620.577C3242.39 620.577 3263.09 612.207 3278.9 595.467C3294.71 578.262 3302.61 556.174 3302.61 529.204C3302.61 511.534 3298.89 495.957 3291.45 482.472C3284.48 468.522 3274.48 457.826 3261.46 450.386C3248.9 442.481 3234.02 438.529 3216.82 438.529C3200.08 438.529 3185.2 442.481 3172.18 450.386C3159.62 457.826 3149.63 468.522 3142.19 482.472C3135.21 495.957 3131.72 511.534 3131.72 529.204C3131.72 547.339 3135.21 563.382 3142.19 577.332C3149.63 590.817 3159.62 601.512 3172.18 609.417C3185.2 616.857 3200.08 620.577 3216.82 620.577ZM3297.73 698V607.325L3312.38 525.019L3297.73 444.109V361.106H3388.41V698H3297.73ZM3575.26 700.79L3434.36 361.106H3533.41L3626.87 620.577H3593.39L3690.35 361.106H3790.09L3640.13 700.79H3575.26ZM3481.79 838.896L3584.33 621.972L3640.13 700.79L3578.75 838.896H3481.79Z" fill="white"/>
<defs>
<clipPath id="clip0_8_3">
<rect width="1024" height="1024" fill="white"/>
</clipPath>
</defs>
</svg>
